<svg width="470" height="501" viewBox="0 0 470 501" fill="none" xmlns="http://www.w3.org/2000/svg">
<path d="M286 343C262.292 325.039 234.534 328.047 211.673 337.216C192.28 344.994 194.539 370.06 212.922 379.994L283.007 417.871C298.193 426.079 317.38 419.292 317.128 402.032C316.854 383.208 309.606 360.883 286 343Z" fill="#D65305"/>
<path d="M251 170.5C194.14 170.849 177.259 211.532 175.086 239.62C174.52 246.938 177.785 253.983 183.518 258.567C220.64 288.245 261.513 279.966 283.754 268.916C288.977 266.321 292.814 261.692 294.76 256.194C306.461 223.136 310.868 170.133 251 170.5Z" fill="#D65305"/>
<path d="M359.5 308C367.521 325.02 379.855 334.441 392.139 339.294C408.919 345.923 420.657 327.82 415.173 310.631L402.652 271.387C397.055 253.845 376.297 245.441 365.194 260.129C355.761 272.608 350.571 289.054 359.5 308Z" fill="#D65305"/>
<path d="M392 424C380.079 430.812 368.52 414.664 362.264 401.795C360.284 397.722 359.541 393.102 360.393 388.654C365.019 364.489 382.095 374.127 392.494 384.381C394.211 386.073 395.612 388.053 396.58 390.26C400.927 400.166 404.493 416.861 392 424Z" fill="#D65305"/>
<path d="M286 343C262.292 325.039 234.534 328.047 211.673 337.216C192.28 344.994 194.539 370.06 212.922 379.994L283.007 417.871C298.193 426.079 317.38 419.292 317.128 402.032C316.854 383.208 309.606 360.883 286 343Z" stroke="#D65305" stroke-width="10"/>
<path d="M251 170.5C194.14 170.849 177.259 211.532 175.086 239.62C174.52 246.938 177.785 253.983 183.518 258.567C220.64 288.245 261.513 279.966 283.754 268.916C288.977 266.321 292.814 261.692 294.76 256.194C306.461 223.136 310.868 170.133 251 170.5Z" stroke="#D65305" stroke-width="10"/>
<path d="M359.5 308C367.521 325.02 379.855 334.441 392.139 339.294C408.919 345.923 420.657 327.82 415.173 310.631L402.652 271.387C397.055 253.845 376.297 245.441 365.194 260.129C355.761 272.608 350.571 289.054 359.5 308Z" stroke="#D65305" stroke-width="10"/>
<path d="M392 424C380.079 430.812 368.52 414.664 362.264 401.795C360.284 397.722 359.541 393.102 360.393 388.654C365.019 364.489 382.095 374.127 392.494 384.381C394.211 386.073 395.612 388.053 396.58 390.26C400.927 400.166 404.493 416.861 392 424Z" stroke="#D65305" stroke-width="10"/>
<path d="M424.5 491L54 300C134.8 159.6 284 84.5 348.5 64.5C382.833 186.333 453.8 438 463 470C472.2 502 441.167 497.333 424.5 491Z" stroke="#D65305" stroke-width="10"/>
<path d="M30.9291 311.486C22.073 310.008 15.6516 305.175 11.1321 299.141C0.685992 285.195 5.53791 266.007 13.9875 250.768C78.5287 134.367 208.396 54.7816 294.325 16.7224C320.723 5.03023 357.564 6.19476 364.748 34.1586C367.222 43.7903 366.195 54.7737 358.885 66.5693C352.366 77.0876 341.111 83.4003 329.84 88.51C181.41 155.805 108.354 250.606 66.3562 294.967C56.9028 304.953 44.4921 313.748 30.9291 311.486Z" fill="#D65305" stroke="#D65305" stroke-width="10"/>
</svg>
